<svg width="40" height="39" viewBox="0 0 40 39" fill="none" xmlns="http://www.w3.org/2000/svg">
<circle cx="19.7049" cy="19.5" r="19" fill="white" stroke="#C9C9C9"/>
<path d="M19.9062 14.0869C20.6587 14.0869 21.6019 13.5694 22.1636 12.8795C22.6723 12.2543 23.0432 11.3812 23.0432 10.508C23.0432 10.3894 23.0326 10.2708 23.0114 10.1738C22.1742 10.2062 21.1674 10.7452 20.5633 11.4674C20.0864 12.0172 19.6519 12.8795 19.6519 13.7635C19.6519 13.8928 19.6731 14.0222 19.6837 14.0653C19.7367 14.0761 19.8215 14.0869 19.9062 14.0869ZM17.2568 27.1304C18.2848 27.1304 18.7405 26.4297 20.0228 26.4297C21.3264 26.4297 21.6125 27.1088 22.7571 27.1088C23.8804 27.1088 24.6329 26.0524 25.3429 25.0175C26.1378 23.8318 26.4663 22.6675 26.4875 22.6136C26.4133 22.5921 24.262 21.6974 24.262 19.1857C24.262 17.0082 25.9576 16.0272 26.053 15.9518C24.9296 14.3132 23.2234 14.2701 22.7571 14.2701C21.4959 14.2701 20.4679 15.0463 19.8215 15.0463C19.122 15.0463 18.2 14.3132 17.1084 14.3132C15.0312 14.3132 12.9223 16.0596 12.9223 19.3582C12.9223 21.4063 13.7065 23.573 14.6709 24.9744C15.4976 26.1602 16.2182 27.1304 17.2568 27.1304Z" fill="black"/>
</svg>
