<svg width="24" height="24" viewBox="0 0 24 24" fill="none" xmlns="http://www.w3.org/2000/svg">
<path d="M8 9V4.8C8 3.2536 9.2536 2 10.8 2H13.2C14.7464 2 16 3.2536 16 4.8V9" stroke="#D2D2D2" stroke-width="1.5" stroke-linecap="round"/>
<path fill-rule="evenodd" clip-rule="evenodd" d="M12.4054 7.95877C12.136 7.92781 11.864 7.92781 11.5946 7.95877L6.39462 8.55647C4.60265 8.76244 3.25 10.2795 3.25 12.0832V18.2626C3.25 19.9905 4.49407 21.4674 6.19683 21.761L11.3968 22.6575C11.796 22.7264 12.204 22.7264 12.6032 22.6575L17.8032 21.761C19.5059 21.4674 20.75 19.9905 20.75 18.2626V12.0832C20.75 10.2795 19.3974 8.76244 17.6054 8.55647L12.4054 7.95877ZM10.1389 14.2227C10.1389 13.1948 10.9722 12.3616 12 12.3616C13.0279 12.3616 13.8611 13.1948 13.8611 14.2227C13.8611 14.9837 13.4044 15.6381 12.75 15.9265V17.5562C12.75 17.9704 12.4142 18.3062 12 18.3062C11.5858 18.3062 11.25 17.9704 11.25 17.5562V15.9265C10.5957 15.638 10.1389 14.9837 10.1389 14.2227Z" fill="#D2D2D2"/>
</svg>
